<?xml version="1.0" encoding="UTF-8"?>
<svg viewBox="0 0 20 20" version="1.1" xmlns="http://www.w3.org/2000/svg" xmlns:xlink="http://www.w3.org/1999/xlink">
    <!-- Generator: Sketch 55.1 (78136) - https://sketchapp.com -->
    <title>Analytics</title>
    <desc>Created with Sketch.</desc>
    <path d="M0.4090228,20 L19.5907072,20 C19.8166822,20 20,19.8064912 20,19.5685351 C20,19.3300369 19.8166822,19.1370702 19.5907072,19.1370702 L0.4090228,19.1370702 C0.183317809,19.1370702 0,19.3300369 0,19.5685351 C0,19.8064912 0.183317809,20 0.4090228,20 Z" id="Shape"></path>
    <path d="M2.79173157,9.48558136 C2.87569598,9.48558136 2.96047035,9.4584793 3.03309552,9.402107 L12.4373801,2.13089361 L11.8798672,6.06909487 C11.8466594,6.30488285 12.0010891,6.52413857 12.2240943,6.55937125 C12.244343,6.5626235 12.2648616,6.56424963 12.2853802,6.56424963 C12.484357,6.56424963 12.6593054,6.41030989 12.6892734,6.19647459 L13.3545091,1.49318199 C13.3806974,1.31051406 13.3372303,1.12784613 13.2324773,0.978784766 C13.1279942,0.829994421 12.9749144,0.732969024 12.8015859,0.705866957 L8.34121253,0.00473650014 C8.11874732,-0.0302251655 7.90978122,0.132116212 7.87630344,0.367633169 C7.84282567,0.603421147 7.99671544,0.822947884 8.22053055,0.85790955 L11.942503,1.44331418 L2.54901771,8.70666797 C2.36704981,8.84759872 2.32790241,9.1175353 2.46154352,9.30968895 C2.54145821,9.42460171 2.66591993,9.48558136 2.79173157,9.48558136 Z" id="Shape"></path>
    <path d="M15.7102554,17.11366 L17.5634121,17.11366 C18.3358308,17.11366 18.964349,16.5698201 18.964349,15.9019152 L18.964349,6.11390763 C18.964349,5.44578045 18.3358308,4.90216283 17.5634121,4.90216283 L15.7102554,4.90216283 C14.9375667,4.90216283 14.3090484,5.44555811 14.3090484,6.11390763 L14.3090484,15.9019152 C14.3087786,16.5698201 14.9372968,17.11366 15.7102554,17.11366 Z M15.1270941,6.11390763 C15.1270941,5.83598451 15.3889767,5.60986626 15.7099854,5.60986626 L17.5634121,5.60986626 C17.8844208,5.60986626 18.1460334,5.83598451 18.1460334,6.11390763 L18.1460334,15.9019152 C18.1460334,16.1793937 17.8844208,16.4057343 17.5634121,16.4057343 L15.7102554,16.4057343 C15.3892467,16.4057343 15.1273641,16.1793937 15.1273641,15.9019152 L15.1273641,6.11390763 L15.1270941,6.11390763 Z" id="Shape" fill-rule="nonzero"></path>
    <path d="M10.8130509,8.47357011 L8.96016415,8.47357011 C8.1880155,8.47357011 7.55949729,9.00295788 7.55949729,9.65359601 L7.55949729,15.9534187 C7.55949729,16.6038403 8.1880155,17.1334446 8.96016415,17.1334446 L10.8130509,17.1334446 C11.5851996,17.1334446 12.2137178,16.6038403 12.2137178,15.9534187 L12.2137178,9.65359601 C12.2137178,9.00295788 11.5851996,8.47357011 10.8130509,8.47357011 Z M11.3954022,15.9534187 C11.3954022,16.2236338 11.1343296,16.4440496 10.8130509,16.4440496 L8.96016415,16.4440496 C8.63888551,16.4440496 8.37781288,16.2236338 8.37781288,15.9534187 L8.37781288,9.65359601 C8.37781288,9.38294787 8.63888551,9.16274854 8.96016415,9.16274854 L10.8130509,9.16274854 C11.1343296,9.16274854 11.3954022,9.38294787 11.3954022,9.65359601 L11.3954022,15.9534187 Z" id="Shape" fill-rule="nonzero"></path>
    <path d="M2.48086502,17.1540421 L4.33348182,17.1540421 C5.10617044,17.1540421 5.73468864,16.6204106 5.73468864,15.9650429 L5.73468864,12.8732087 C5.73468864,12.2174047 5.10617044,11.6842095 4.33348182,11.6842095 L2.48086502,11.6842095 C1.70844639,11.6842095 1.07992818,12.2174047 1.07992818,12.8732087 L1.07992818,15.9650429 C1.07992818,16.6204106 1.70844639,17.1540421 2.48086502,17.1540421 Z M1.8977038,12.8732087 C1.8977038,12.6005025 2.15931641,12.3786287 2.48086502,12.3786287 L4.33348182,12.3786287 C4.65503044,12.3786287 4.91637306,12.6005025 4.91637306,12.8732087 L4.91637306,15.9650429 C4.91637306,16.2373128 4.65503044,16.4594048 4.33348182,16.4594048 L2.48086502,16.4594048 C2.15931641,16.4594048 1.8977038,16.2373128 1.8977038,15.9650429 L1.8977038,12.8732087 L1.8977038,12.8732087 Z" id="Shape" fill-rule="nonzero"></path>
</svg>
