<?xml version="1.0" encoding="UTF-8"?>
<svg viewBox="0 0 20 20" version="1.1" xmlns="http://www.w3.org/2000/svg" xmlns:xlink="http://www.w3.org/1999/xlink">
    <!-- Generator: Sketch 55.1 (78136) - https://sketchapp.com -->
    <title>Campaign</title>
    <desc>Created with Sketch.</desc>
    <ellipse id="Oval" cx="0.375723623" cy="19.5861176" rx="1" ry="1"></ellipse>
    <ellipse id="Oval" cx="9.97217554" cy="9.58070588" rx="1" ry="1"></ellipse>
    <path d="M14.8825023,4.5894902 C14.5810644,4.27294118 14.1802801,4.09866667 13.7539869,4.09866667 C13.3276937,4.09866667 12.9268721,4.27301961 12.6254715,4.5894902 C12.003212,5.24290196 12.003212,6.30603922 12.6254715,6.95941176 C12.9366573,7.28611765 13.3452474,7.44941176 13.7539869,7.44941176 C14.1626144,7.44941176 14.5713912,7.28603922 14.8825023,6.95941176 C15.5047619,6.306 15.5047619,5.24286275 14.8825023,4.5894902 Z M14.3522689,6.40258824 C14.0223716,6.74894118 13.4855649,6.74894118 13.1557423,6.40258824 C12.825845,6.05623529 12.825845,5.49262745 13.1557423,5.14623529 C13.3155556,4.97843137 13.5279925,4.88603922 13.7539869,4.88603922 C13.9799813,4.88603922 14.1924183,4.97843137 14.3522316,5.14623529 C14.6821289,5.49262745 14.6821289,6.05623529 14.3522689,6.40258824 Z" id="Shape" fill-rule="nonzero"></path>
    <path d="M4.68380952,16.0960784 C4.4984127,15.9991373 4.27335201,16.0783922 4.18102708,16.2730196 L3.73441643,17.2147843 C3.54020542,17.6242353 3.14961718,17.8980392 2.71495798,17.9292549 L2.19551821,17.9665882 C2.10771242,17.9727451 2.04997199,17.9268235 2.02326797,17.8987843 C1.99656396,17.8707451 1.95271709,17.81 1.95869281,17.7178824 L1.99424837,17.1725098 C2.02401494,16.7161569 2.28478058,16.306 2.67469655,16.1020784 L3.57157796,15.6331373 C3.75697479,15.5361961 3.8324183,15.2998431 3.74009337,15.1052157 C3.64780579,14.9105882 3.42270775,14.8313333 3.23731092,14.9282745 L2.34042951,15.3972157 C1.71327731,15.7251373 1.29393091,16.3847451 1.24605042,17.1187059 L1.21049486,17.6640784 C1.19129785,17.9584706 1.29422969,18.2469412 1.4929225,18.4555686 C1.67585434,18.6476471 1.92328665,18.754549 2.18024276,18.754549 C2.20231559,18.754549 2.22453782,18.7537647 2.24672269,18.7521569 L2.76616246,18.7148235 C3.46517274,18.6645882 4.09337068,18.2243137 4.40567694,17.5657255 L4.85228758,16.624 C4.94461251,16.4293333 4.869169,16.1930196 4.68380952,16.0960784 Z" id="Path"></path>
    <path d="M18.8634921,0.281568627 C18.6875444,0.0995686275 18.4451541,0.00439215686 18.1989542,0.0212156863 L17.8498226,0.0445882353 C14.7193277,0.254431373 11.7896172,1.84105882 9.8119141,4.39768627 L8.99010271,5.46 L6.83947712,5.39368627 C6.83581699,5.39356863 6.83211951,5.39352941 6.82849673,5.39352941 C5.12287582,5.39352941 3.51932773,6.09094118 2.31323996,7.35729412 L0.110513539,9.67019608 C0.00575163399,9.78019608 -0.0275256769,9.94470588 0.0256582633,10.0898824 C0.0788422035,10.235098 0.20844071,10.3338431 0.356414566,10.3417647 L5.01912232,10.5932941 L4.82901961,10.8390588 C4.73322129,10.9629412 4.71805789,11.1352549 4.79070028,11.2754118 C4.8637535,11.4164314 4.94031746,11.5552157 5.02016807,11.6917647 L3.91443511,13.0700784 C3.81990663,13.1879216 3.79955182,13.3528627 3.86225957,13.4921569 C4.10379085,14.0280392 4.42435107,14.5095294 4.8151634,14.9232549 C5.21546218,15.347098 5.68354809,15.6936863 6.20634921,15.9534902 C6.25744164,15.978902 6.31223156,15.9913333 6.36668534,15.9913333 C6.45112979,15.9913333 6.53486461,15.9613725 6.60298786,15.9033725 C6.84119514,15.7004706 7.11581699,15.4598039 7.38143791,15.227098 C7.5707563,15.0612157 7.76444444,14.8915294 7.94547152,14.7350588 C8.05352007,14.8033333 8.16291317,14.8695294 8.27394958,14.9329412 C8.33012138,14.9650196 8.39170868,14.9808235 8.4530719,14.9808235 C8.53471522,14.9808235 8.61583567,14.952902 8.68298786,14.8981569 L8.93856209,14.6899216 L9.17915966,19.6063922 C9.18677871,19.7617647 9.28078431,19.8978431 9.41904762,19.9536863 C9.46281979,19.9713333 9.50830999,19.9799608 9.5535014,19.9799608 C9.65116713,19.9799608 9.7470775,19.9398431 9.81871148,19.8645882 L12.0214753,17.5516863 C13.227563,16.2852941 13.8917274,14.6016078 13.8917274,12.8106667 L13.8917274,10.654 L14.7607096,9.94596078 C17.3649673,7.824 18.9510364,4.62423529 19.1122316,1.16705882 L19.1211578,0.97545098 C19.1333333,0.716470588 19.0393651,0.463607843 18.8634921,0.281568627 Z M1.23708683,9.60086275 L2.84351074,7.91411765 C3.90662932,6.79784314 5.31981326,6.18247059 6.82308123,6.18094118 L8.39488329,6.22941176 L5.60459384,9.83647059 L1.23708683,9.60086275 Z M6.90098973,14.6225098 C6.70524743,14.7939608 6.50457516,14.9698039 6.31835668,15.1306275 C5.95816993,14.9258039 5.6323436,14.6702353 5.34760037,14.3687451 C5.07182073,14.0767843 4.83708683,13.7443529 4.64780579,13.3781569 L5.45736695,12.3690196 C5.70214753,12.7138431 5.97008403,13.0404706 6.25953315,13.3464706 C6.25975724,13.3467059 6.25998133,13.346902 6.26020542,13.3471373 C6.26028011,13.3472157 6.26035481,13.3473333 6.26042951,13.3474118 C6.26054155,13.3475294 6.26065359,13.3476078 6.26076564,13.3477255 C6.58169935,13.6868627 6.92690943,13.9980784 7.29310924,14.2795294 C7.16380952,14.3922353 7.0313352,14.5083137 6.90098973,14.6225098 Z M13.1419234,12.8106667 C13.1419234,14.3912549 12.5557423,15.8772157 11.4912792,16.994902 L9.88485528,18.6816471 L9.66069094,14.1015686 L13.1418861,11.265098 L13.1418861,12.8106667 L13.1419234,12.8106667 Z M18.363324,1.12858824 C18.2128478,4.35592157 16.7322129,7.34298039 14.3010644,9.32388235 L8.42020542,14.1156078 C7.93251167,13.8163922 7.47794585,13.463098 7.06192344,13.0628235 L9.04459384,10.9810196 C9.19099907,10.8272941 9.19099907,10.5779608 9.04459384,10.4241961 C8.89815126,10.2704314 8.66072829,10.2704314 8.51428571,10.4241961 L6.53348273,12.5040392 C6.16929972,12.0807059 5.84676004,11.6200784 5.57213819,11.1274118 L10.3940243,4.89411765 C12.2402241,2.5074902 14.9751634,1.02631373 17.8975537,0.830470588 L18.2466853,0.807098039 C18.292437,0.804117647 18.3230626,0.827960784 18.3371802,0.84254902 C18.3512605,0.857098039 18.3745285,0.888745098 18.3722876,0.937019608 L18.363324,1.12858824 Z" id="Shape" fill-rule="nonzero"></path>
</svg>
