<?xml version="1.0" encoding="UTF-8"?>
<svg width="33px" height="19px" viewBox="0 0 33 19" version="1.1" xmlns="http://www.w3.org/2000/svg" xmlns:xlink="http://www.w3.org/1999/xlink">
    <!-- Generator: Sketch 55.1 (78136) - https://sketchapp.com -->
    <title>CMS</title>
    <desc>Created with Sketch.</desc>
    <path transform="translate(0.049585, 0.207150)" d="M7.63609869,16.4291423 C8.01946286,16.4291423 8.33028948,16.109307 8.33028948,15.7148318 L8.33028948,14.5146646 C8.57264615,14.4023559 8.80483396,14.2684227 9.02448027,14.1146088 L10.0379717,14.7148668 C10.3698139,14.9087909 10.7914805,14.7905531 10.9819763,14.4504882 L12.3703579,11.9790016 C12.4639109,11.815073 12.4896719,11.6197537 12.4428953,11.436293 C12.3961189,11.2528325 12.2801944,11.0958794 12.1205441,11.0003125 L11.1070526,10.4004033 C11.1070526,10.2647262 11.1070526,10.1360246 11.1070526,10.0003475 C11.1070526,9.86467039 11.1070526,9.73596886 11.1070526,9.60029174 L12.1137648,9.0003825 C12.2730762,8.9048156 12.3890007,8.74786256 12.4361161,8.56440199 C12.4828927,8.38094133 12.4567928,8.18562204 12.3635787,8.0216934 L10.9751971,5.5502068 C10.7843624,5.21014195 10.3630347,5.09190409 10.0311925,5.28582824 L9.02448027,5.88608624 C8.80483396,5.73227232 8.57264615,5.5983391 8.33028948,5.48603046 L8.33028948,4.28586322 C8.33028948,3.89138799 8.01946286,3.57155268 7.63609869,3.57155268 L4.85933553,3.57155268 C4.47597135,3.57155268 4.16514474,3.89138799 4.16514474,4.28586322 L4.16514474,5.48603046 C3.92278807,5.5983391 3.69060025,5.73227232 3.47095395,5.88608624 L2.45746247,5.28582824 C2.12562036,5.09190409 1.70395368,5.21014195 1.51345793,5.5502068 L0.125076346,8.0216934 C0.0315232905,8.18562204 0.0057623042,8.38094133 0.0525388754,8.56440199 C0.0993153599,8.74786256 0.215239842,8.9048156 0.3748901,9.0003825 L1.38160237,9.60029174 L1.38160237,10.0003475 L1.38160237,10.4004033 L0.3748901,11.0003125 C0.215239842,11.0958794 0.0993153599,11.2528325 0.0525388754,11.436293 C0.0057623042,11.6197537 0.0315232905,11.815073 0.125076346,11.9790016 L1.51345793,14.4504882 C1.70395368,14.7905531 2.12562036,14.9087909 2.45746247,14.7148668 L3.47095395,14.1146088 C3.69060025,14.2684227 3.92278807,14.4023559 4.16514474,14.5146646 L4.16514474,15.7148318 C4.16514474,16.109307 4.47597135,16.4291423 4.85933553,16.4291423 C5.2426997,16.4291423 5.55352632,16.109307 5.55352632,15.7148318 L5.55352632,14.0361323 C5.55250942,13.7337362 5.36608127,13.4644746 5.08847272,13.3647223 C4.68782164,13.217884 4.3163211,12.9974522 3.99159704,12.7145881 C3.76856118,12.517176 3.44858261,12.4854366 3.1933454,12.6361115 L2.38797562,13.1219683 L1.69378483,11.8789005 L2.49915461,11.4289686 C2.7560866,11.2789912 2.89234862,10.9779903 2.83913186,10.679082 C2.7560866,10.2497284 2.7560866,9.80816726 2.83913186,9.37881359 C2.91946544,9.0614198 2.7791359,8.72833063 2.49915461,8.57172644 L1.69378483,8.09319418 L2.38797562,6.85012643 L3.1933454,7.33598314 C3.44858261,7.48665802 3.76856118,7.45526746 3.99159704,7.25750666 C4.3163211,6.97464246 4.68782164,6.75421069 5.08847272,6.60737246 C5.36608127,6.50762007 5.55250942,6.23835857 5.55352632,5.93596244 L5.55352632,5.00017376 L6.9419079,5.00017376 L6.9419079,5.96456271 C6.9429248,6.26695885 7.12935295,6.53622044 7.40696149,6.63597274 C7.80761258,6.78281106 8.17911312,7.00324283 8.50383718,7.28610694 C8.72687304,7.48351898 9.04685161,7.51525839 9.30208881,7.36458351 L10.1074586,6.87872671 L10.8016494,8.12179455 L9.9962796,8.57172644 C9.73934762,8.72170379 9.6030856,9.0227047 9.65630235,9.32161303 C9.73934762,9.75096661 9.73934762,10.1925278 9.65630235,10.6218814 C9.57596877,10.9392752 9.71629831,11.2723644 9.9962796,11.4289686 L10.8016494,11.9075008 L10.1074586,13.1505686 L9.30208881,12.6647119 C9.04685161,12.514037 8.72687304,12.5454276 8.50383718,12.7431884 C8.17911312,13.0260526 7.80761258,13.2464843 7.40696149,13.3933226 C7.12935295,13.493075 6.9429248,13.7623365 6.9419079,14.0647326 L6.9419079,15.7148318 C6.9419079,16.109307 7.25273451,16.4291423 7.63609869,16.4291423 Z" id="Path"></path>
    <path transform="translate(0.049585, 0.207150)" d="M8.33028948,10.0003475 C8.33028948,8.81692192 7.39780954,7.8574159 6.24771711,7.8574159 C5.09762467,7.8574159 4.16514474,8.81692192 4.16514474,10.0003475 C4.16514474,11.1837731 5.09762467,12.1432791 6.24771711,12.1432791 C7.39780954,12.1432791 8.33028948,11.1837731 8.33028948,10.0003475 Z M6.24771711,10.714658 C5.86435293,10.714658 5.55352632,10.3948227 5.55352632,10.0003475 C5.55352632,9.60587229 5.86435293,9.28603698 6.24771711,9.28603698 C6.63108128,9.28603698 6.9419079,9.60587229 6.9419079,10.0003475 C6.9419079,10.3948227 6.63108128,10.714658 6.24771711,10.714658 Z" id="Shape" fill-rule="nonzero"></path>
    <path transform="translate(0.049585, 0.207150)" d="M21.5199145,10.0003475 C21.5199145,11.5782483 22.763221,12.8575897 24.2966776,12.8575897 C25.8301343,12.8575897 27.0734408,11.5782483 27.0734408,10.0003475 C27.0734408,8.4224467 25.8301343,7.14310537 24.2966776,7.14310537 C22.763221,7.14310537 21.5199145,8.4224467 21.5199145,10.0003475 Z M25.6850592,10.0003475 C25.6850592,10.789298 25.063406,11.4289686 24.2966776,11.4289686 C23.5299493,11.4289686 22.9082961,10.789298 22.9082961,10.0003475 C22.9082961,9.21139706 23.5299493,8.57172644 24.2966776,8.57172644 C25.063406,8.57172644 25.6850592,9.21139706 25.6850592,10.0003475 Z" id="Shape" fill-rule="nonzero"></path>
    <path transform="translate(0.049585, 0.207150)" d="M32.5507011,7.57176142 L30.4681287,3.85720716 C30.379999,3.69013939 30.2308565,3.56632089 30.0535802,3.51260813 C29.8766429,3.45889529 29.6858082,3.48017111 29.5237851,3.57155268 L27.7676316,4.64999418 C27.5442567,4.50036567 27.3124078,4.3643397 27.0734408,4.24296271 L27.0734408,2.14293161 C27.0734408,1.74845638 26.7626142,1.42862107 26.37925,1.42862107 L22.2141053,1.42862107 C21.8307411,1.42862107 21.5199145,1.74845638 21.5199145,2.14293161 L21.5199145,4.24296271 C21.2809475,4.3643397 21.0490986,4.50036567 20.8257237,4.64999418 L19.0695702,3.57155268 C18.7394227,3.37658216 18.318434,3.49133222 18.1252266,3.82860679 L16.0426542,7.54316114 C15.9331701,7.71092644 15.8979182,7.9184532 15.9457116,8.11447001 C15.9931661,8.31048691 16.1192593,8.47685707 16.292807,8.57172644 L18.0489605,9.60029174 L18.0489605,10.0003475 L18.0489605,10.4004033 L16.292807,11.4289686 C15.9646934,11.6274269 15.8531754,12.060966 16.0426542,12.4003332 L18.1252266,16.1148876 C18.318434,16.4525109 18.7394227,16.5669122 19.0695702,16.3719417 L20.8257237,15.3507008 C21.0490986,15.5003294 21.2809475,15.6363553 21.5199145,15.7577323 L21.5199145,17.8577634 C21.5199145,18.2522386 21.8307411,18.572074 22.2141053,18.572074 L26.37925,18.572074 C26.7626142,18.572074 27.0734408,18.2522386 27.0734408,17.8577634 L27.0734408,15.7577323 C27.3124078,15.6363553 27.5442567,15.5003294 27.7676316,15.3507008 L29.5237851,16.4291423 C29.8539325,16.6241129 30.2749213,16.5093628 30.4681287,16.1720882 C30.5613427,16.0081595 30.5874427,15.8128402 30.5406662,15.6293796 C30.4935507,15.4455702 30.3776263,15.288966 30.2179759,15.193399 L28.0591375,13.9147553 C27.8144081,13.7661731 27.5066322,13.7860539 27.2815625,13.9646315 C26.9287047,14.2597031 26.5358497,14.5003644 26.1155389,14.6789421 C25.8562342,14.7888091 25.6864151,15.047956 25.6850592,15.3364007 L25.6850592,17.1434529 L22.9082961,17.1434529 L22.9082961,15.2935002 C22.9069402,15.0050554 22.7371211,14.7459087 22.4778164,14.6363903 C22.0575055,14.4574639 21.6646506,14.2168026 21.3117928,13.9220798 C21.0867231,13.7431534 20.7789472,13.7232726 20.5342178,13.8718548 L18.9790677,14.7933434 L17.5906861,12.3218568 L19.1458362,11.4289686 C19.3922604,11.285967 19.5295393,11.0034516 19.4929316,10.714658 C19.4186993,10.2560065 19.4186993,9.78758905 19.4929316,9.32893748 C19.5295393,9.04014397 19.3922604,8.75762852 19.1458362,8.61462695 L17.5906861,7.68581396 L18.9790677,5.21432745 L20.5342178,6.1358159 C20.7789472,6.28439803 21.0867231,6.2648661 21.3117928,6.0859397 C21.6646506,5.79086811 22.0575055,5.55055556 22.4778164,5.37162916 C22.7371211,5.26211089 22.9069402,5.00296403 22.9082961,4.71451928 L22.9082961,2.85724215 L25.6850592,2.85724215 L25.6850592,4.70719483 C25.6864151,4.99563958 25.8562342,5.25478635 26.1155389,5.36430471 C26.5358497,5.54323111 26.9287047,5.78389242 27.2815625,6.07861525 C27.5066322,6.25754165 27.8144081,6.27742243 28.0591375,6.12884021 L29.6142876,5.20735167 L31.0026691,7.67883827 L29.4475191,8.57172644 C29.2010949,8.71472802 29.063816,8.99724346 29.1004237,9.28603698 C29.174656,9.74468854 29.174656,10.213106 29.1004237,10.6717575 C29.063816,10.9605511 29.2010949,11.2430665 29.4475191,11.3860681 L31.6063575,12.6720363 C31.9361659,12.8492188 32.3432573,12.7278418 32.5293465,12.3964967 C32.7154357,12.0651514 32.6147645,11.6413783 32.3005483,11.4359443 L30.5443948,10.4004033 C30.5443948,10.2647262 30.5443948,10.1290489 30.5443948,10.0003475 C30.5443948,9.87164608 30.5443948,9.73596886 30.5443948,9.60029174 L32.3005483,8.57172644 C32.4659609,8.47615955 32.5862919,8.31536985 32.6334074,8.12667749 C32.6805229,7.93763637 32.6506944,7.73743405 32.5507011,7.57176142 Z" id="Path"></path>
    <path transform="translate(0.049585, 0.207150)" d="M10.4128618,2.74286689 C10.5403109,2.74214333 10.6653873,2.70482337 10.7738546,2.635764 C12.6835572,1.41711121 15.0108589,1.10460035 17.1605455,1.77880065 C17.3408724,1.84053548 17.5381473,1.82379382 17.7059327,1.73206358 C17.874057,1.63998449 17.9977775,1.48128755 18.0489605,1.29294395 C18.1564109,0.914163999 17.9448997,0.517596111 17.5767888,0.407031466 C15.0427212,-0.383662886 12.3001931,-0.0115098643 10.0518691,1.42862107 C9.89391353,1.52767585 9.78103976,1.68741917 9.73799178,1.87227488 C9.69494379,2.05747944 9.72545026,2.25244988 9.82273191,2.41428586 C9.95153684,2.62076625 10.1742338,2.7449336 10.4128618,2.74286689 L10.4128618,2.74286689 Z" id="Path"></path>
    <path transform="translate(0.049585, 0.207150)" d="M10.0518691,17.1434529 C11.514144,18.0677316 13.1950484,18.5619592 14.9112046,18.572074 C15.5440435,18.5699812 16.1745099,18.4981316 16.7924345,18.3579203 C17.0500444,18.3206004 17.2656232,18.1385349 17.3513802,17.8856662 C17.4371371,17.6331462 17.378497,17.3523748 17.1991869,17.1584506 C17.0198769,16.9641777 16.7504034,16.8895378 16.5009286,16.9648752 C15.9833361,17.0817181 15.454897,17.141709 14.925102,17.1434529 C13.455031,17.1455456 12.0130936,16.7277018 10.7599572,15.9363099 C10.4338774,15.7326198 10.0091601,15.8379527 9.80883447,16.1720882 C9.61799986,16.5097116 9.72646717,16.942553 10.0518691,17.1434529 L10.0518691,17.1434529 Z" id="Path"></path>
</svg>
