<?xml version="1.0" encoding="UTF-8"?>
<svg viewBox="0 0 22 22" version="1.1" xmlns="http://www.w3.org/2000/svg" xmlns:xlink="http://www.w3.org/1999/xlink">
    <!-- Generator: Sketch 55.1 (78136) - https://sketchapp.com -->
    <title>Dashboard</title>
    <desc>Created with Sketch.</desc>
    <path fill="none" transform="translate(-413.000000, -217.000000)" d="M426.111333,238 L426.111333,233.13223 C426.111333,231.683747 425.504337,230.505887 424,230.505887 C422.495663,230.505887 421.888667,231.683747 421.888667,233.13223 L421.888667,238 L419.176889,238 C417.8,238 416.679556,236.794688 416.679556,235.313508 L416.679556,228.949882 C416.679556,228.77848 416.549778,228.638873 416.390222,228.638873 L414.996889,228.638873 C414.447111,228.638873 414,228.157895 414,227.566475 L414,226.644204 C414,226.143863 414.277111,225.534513 414.644222,225.227329 L422.767556,218.430776 C423.099556,218.153234 423.536889,218 424,218 C424.462667,218 424.900667,218.153234 425.232444,218.430776 L433.355778,225.227329 C433.722889,225.534513 434,226.143863 434,226.644204 L434,227.566475 C434,228.157656 433.552889,228.638873 433.003111,228.638873 L431.609778,228.638873 C431.450222,228.638873 431.320444,228.77848 431.320444,228.949882 L431.320444,235.313508 C431.320444,236.794688 430.2,238 428.822889,238 L426.111333,238 Z" id="Combined-Shape-Copy"></path>
</svg>
