<?xml version="1.0" encoding="UTF-8"?>
<svg viewBox="0 0 20 20" version="1.1" xmlns="http://www.w3.org/2000/svg" xmlns:xlink="http://www.w3.org/1999/xlink">
    <!-- Generator: Sketch 55.1 (78136) - https://sketchapp.com -->
    <title>Enterprise</title>
    <desc>Created with Sketch.</desc>
    <path d="M19.6670417,4.99999992 C19.6669167,4.99999992 19.6667917,4.99999992 19.6666667,4.99999992 L14.6666667,4.99999992 L14.6666667,0.333333333 C14.6667917,0.149333333 14.5177083,-7.85479166e-08 14.3337083,-7.85479166e-08 C14.3335833,-7.85479166e-08 14.3334583,-7.85479166e-08 14.3333333,-7.85479166e-08 L5.66666667,-7.85479166e-08 C5.48266667,-7.85479166e-08 5.33345833,0.148958333 5.33333333,0.332958333 C5.33333333,0.333083333 5.33333333,0.333208333 5.33333333,0.333333333 L5.33333333,4.99999992 L0.333333333,4.99999992 C0.149333333,4.999875 -7.85479166e-08,5.14895833 -7.85479166e-08,5.33295833 C-7.85479166e-08,5.33308333 -7.85479166e-08,5.33320833 -7.85479166e-08,5.33333333 L-7.85479166e-08,17.3333333 C-7.85479166e-08,17.5173333 0.148958333,17.6665417 0.332958333,17.6666667 C0.333083333,17.6666667 0.333208333,17.6666667 0.333333333,17.6666667 L1.030125,17.6666667 C1.01079167,17.77675 1.00070833,17.88825 0.999999921,17.9999999 L0.999999921,19.6666667 C0.999875,19.8506667 1.14895833,19.9999999 1.33295833,19.9999999 C1.33308333,19.9999999 1.33320833,19.9999999 1.33333333,19.9999999 L18.6666667,19.9999999 C18.8506667,19.9999999 18.999875,19.8510417 18.9999999,19.6670417 C18.9999999,19.6669167 18.9999999,19.6667917 18.9999999,19.6666667 L18.9999999,17.9999999 C18.9993333,17.88825 18.98925,17.77675 18.969875,17.6666667 L19.6666667,17.6666667 C19.8506667,17.6667917 19.9999999,17.5177083 19.9999999,17.3337083 C19.9999999,17.3335833 19.9999999,17.3334583 19.9999999,17.3333333 L19.9999999,5.33333333 C19.9999999,5.14933333 19.8510417,5.000125 19.6670417,4.99999992 Z M14.3333333,14.3333333 C14.3333333,14.7015417 14.034875,15 13.6666667,15 C13.2984583,15 13,14.7015417 13,14.3333333 C13,13.965125 13.2984583,13.6666667 13.6666667,13.6666667 C14.0346667,13.667125 14.332875,13.9653333 14.3333333,14.3333333 Z M6.33333333,13.6666667 C6.70154167,13.6666667 7,13.965125 7,14.3333333 C7,14.7015417 6.70154167,15 6.33333333,15 C5.965125,15 5.66666667,14.7015417 5.66666667,14.3333333 C5.667125,13.9653333 5.96533333,13.667125 6.33333333,13.6666667 Z M4.33333333,19.3333333 L1.66666667,19.3333333 L1.66666667,18 C1.66666667,17.263625 2.263625,16.6666667 3,16.6666667 C3.736375,16.6666667 4.33333333,17.263625 4.33333333,18 L4.33333333,19.3333333 Z M2.33333333,15.3333333 C2.33333333,14.965125 2.63179167,14.6666667 3,14.6666667 C3.36820833,14.6666667 3.66666667,14.965125 3.66666667,15.3333333 C3.66666667,15.7015417 3.36820833,16 3,16 C2.632,15.9995417 2.33379167,15.7013333 2.33333333,15.3333333 Z M4.38383333,16.559375 C4.258125,16.438125 4.11716667,16.3337917 3.9645,16.249 C4.47291667,15.7163333 4.45329167,14.8723333 3.920625,14.363875 C3.38795833,13.8554167 2.54395833,13.8750833 2.0355,14.40775 C1.54370833,14.9229583 1.54370833,15.73375 2.0355,16.2489583 C1.71733333,16.4255417 1.453,16.6850833 1.27058333,16.9999583 L0.666666667,16.9999583 L0.666666667,5.66666667 L5.33333333,5.66666667 L5.33333333,13.4606667 C4.87558333,13.9742917 4.89104167,14.7539583 5.36883333,15.249 C4.86883333,15.5255417 4.51054167,16.0022083 4.38383333,16.559375 Z M7.66666667,19.3333333 L5,19.3333333 L5,17 C5,16.263625 5.59695833,15.6666667 6.33333333,15.6666667 C7.06970833,15.6666667 7.66666667,16.263625 7.66666667,17 L7.66666667,19.3333333 Z M11.6666667,19.3333333 L8.33333333,19.3333333 L8.33333333,17 C8.33333333,16.0795417 9.07954167,15.3333333 10,15.3333333 C10.9204583,15.3333333 11.6666667,16.0795417 11.6666667,17 L11.6666667,19.3333333 Z M9,13.6666667 C9,13.114375 9.44770833,12.6666667 10,12.6666667 C10.5522917,12.6666667 11,13.114375 11,13.6666667 C11,14.2189583 10.5522917,14.6666667 10,14.6666667 C9.44795833,14.6660833 9.00058333,14.2187083 9,13.6666667 Z M12.0300833,15.8539583 C11.806875,15.4604583 11.4747917,15.1398333 11.0737083,14.930625 C11.77775,14.337625 11.86775,13.2861667 11.2747917,12.582125 C10.6817917,11.8780833 9.63033333,11.7880833 8.92629167,12.3810417 C8.22225,12.9740417 8.13225,14.0255 8.72520833,14.7295417 C8.786375,14.8021667 8.853625,14.8694167 8.92629167,14.930625 C8.52520833,15.1398333 8.193125,15.4604583 7.96991667,15.8539583 C7.79466667,15.6039583 7.56483333,15.3970833 7.29783333,15.249 C7.808875,14.7262083 7.799375,13.8880833 7.27654167,13.3770417 C6.93991667,13.0479583 6.453875,12.9224583 6,13.0473333 L6,0.666666667 L14,0.666666667 L14,13.0473333 C13.891375,13.017375 13.7793333,13.0014583 13.6666667,13 C12.93225,12.9980417 12.3352917,13.5918333 12.3333333,14.3262917 C12.3324167,14.6699583 12.464625,15.0006667 12.7021667,15.249 C12.4351667,15.3970833 12.2053333,15.6039583 12.0300833,15.8539583 Z M15,18 L15,19.3333333 L12.3333333,19.3333333 L12.3333333,17 C12.3333333,16.263625 12.9302917,15.6666667 13.6666667,15.6666667 C14.4030417,15.6666667 15,16.263625 15,17 L15,18 Z M18.3333333,19.3333333 L15.6666667,19.3333333 L15.6666667,18 C15.6666667,17.263625 16.263625,16.6666667 17,16.6666667 C17.736375,16.6666667 18.3333333,17.263625 18.3333333,18 L18.3333333,19.3333333 Z M16.3333333,15.3333333 C16.3333333,14.965125 16.6317917,14.6666667 17,14.6666667 C17.3682083,14.6666667 17.6666667,14.965125 17.6666667,15.3333333 C17.6666667,15.7015417 17.3682083,16 17,16 C16.632,15.9995417 16.3337917,15.7013333 16.3333333,15.3333333 Z M19.333375,17 L18.7294167,17 C18.547,16.685125 18.2826667,16.4255833 17.9645,16.249 C18.4729167,15.7163333 18.4532917,14.8723333 17.920625,14.363875 C17.3879583,13.8554583 16.5439583,13.8750833 16.0355,14.40775 C15.5437083,14.9229583 15.5437083,15.73375 16.0355,16.2489583 C15.8828333,16.33375 15.7418333,16.4380833 15.6161667,16.5593333 C15.4895,16.0021667 15.1311667,15.5255 14.6311667,15.2489583 C15.1089583,14.7539167 15.1244583,13.97425 14.6667083,13.460625 L14.6667083,5.66666667 L19.333375,5.66666667 L19.333375,17 L19.333375,17 Z" id="Shape" fill-rule="nonzero"></path>
    <rect id="Rectangle" x="16.75" y="7.66666667" width="1" height="5.33333333"></rect>
    <rect id="Rectangle" x="2.75" y="7.66666667" width="1" height="5.33333333"></rect>
    <rect id="Rectangle-Copy" x="8.75" y="2.66666667" width="1" height="5.33333333"></rect>
    <rect id="Rectangle-Copy-2" x="10.75" y="2.66666667" width="1" height="5.33333333"></rect>
</svg>
