<?xml version="1.0" encoding="UTF-8"?>
<svg viewBox="0 0 20 20" version="1.1" xmlns="http://www.w3.org/2000/svg" xmlns:xlink="http://www.w3.org/1999/xlink">
    <!-- Generator: Sketch 55.1 (78136) - https://sketchapp.com -->
    <title>Help</title>
    <desc>Created with Sketch.</desc>
    <path d="M10,0 C4.48576923,0 0,4.48576923 0,10 C0,15.5142308 4.48576923,20 10,20 C15.5142308,20 20,15.5142308 20,10 C20,4.48576923 15.5142308,0 10,0 Z M10,19.2307692 C4.91038462,19.2307692 0.769230769,15.0896154 0.769230769,10 C0.769230769,4.91038462 4.91038462,0.769230769 10,0.769230769 C15.0896154,0.769230769 19.2307692,4.91038462 19.2307692,10 C19.2307692,15.0896154 15.0896154,19.2307692 10,19.2307692 Z" id="Shape"></path>
    <path d="M10,14.2307692 C9.78730769,14.2307692 9.61538462,14.4026923 9.61538462,14.6153846 L9.61538462,15.3846154 C9.61538462,15.5973077 9.78730769,15.7692308 10,15.7692308 C10.2126923,15.7692308 10.3846154,15.5973077 10.3846154,15.3846154 L10.3846154,14.6153846 C10.3846154,14.4026923 10.2126923,14.2307692 10,14.2307692 Z" id="Path"></path>
    <path d="M10.0434615,3.46192308 C10.0288462,3.46192308 10.0142308,3.46153846 9.99923077,3.46153846 C9.18538462,3.46153846 8.42,3.775 7.83961538,4.34769231 C7.24884615,4.93038462 6.92307692,5.70846154 6.92307692,6.53846154 C6.92307692,6.75115385 7.095,6.92307692 7.30769231,6.92307692 C7.52038462,6.92307692 7.69230769,6.75115385 7.69230769,6.53846154 C7.69230769,5.91615385 7.93653846,5.33230769 8.37961538,4.89538462 C8.82307692,4.45807692 9.41346154,4.21653846 10.0330769,4.23115385 C11.2488462,4.24807692 12.2903846,5.28961538 12.3073077,6.50538462 C12.3184615,7.30692308 11.9230769,8.04461538 11.2492308,8.47923077 C10.2261538,9.13923077 9.61538462,10.3053846 9.61538462,11.5992308 L9.61538462,12.6923077 C9.61538462,12.905 9.78730769,13.0769231 10,13.0769231 C10.2126923,13.0769231 10.3846154,12.905 10.3846154,12.6923077 L10.3846154,11.5992308 C10.3846154,10.5830769 10.8753846,9.63576923 11.6661538,9.12538462 C12.5642308,8.54615385 13.0915385,7.56269231 13.0765385,6.49461538 C13.0534615,4.84576923 11.6926923,3.485 10.0434615,3.46192308 Z" id="Path"></path>
</svg>
