<?xml version="1.0" encoding="UTF-8"?>
<svg viewBox="0 0 21 18" version="1.1" xmlns="http://www.w3.org/2000/svg" xmlns:xlink="http://www.w3.org/1999/xlink">
    <!-- Generator: Sketch 55.1 (78136) - https://sketchapp.com -->
    <title>Menu</title>
    <desc>Created with Sketch.</desc>
    <path d="M19.6333333,0.9 C19.836,0.9 20,1.06909322 20,1.27754237 C20,1.48599153 19.836,1.65485593 19.6333333,1.65485593 L0.366666667,1.65485593 C0.164,1.65485593 0,1.48622034 0,1.27754237 C0,1.06886441 0.164,0.9 0.366666667,0.9 L19.6333333,0.9 Z M19.6333333,6.04830508 C19.836,6.04830508 20,6.21739831 20,6.42584746 C20,6.63429661 19.836,6.80316102 19.6333333,6.80316102 L5.36666667,6.80316102 C5.164,6.80316102 5,6.63429661 5,6.42584746 C5,6.21739831 5.164,6.04830508 5.36666667,6.04830508 L19.6333333,6.04830508 Z M19.6333333,11.1966102 C19.836,11.1966102 20,11.3654746 20,11.5741525 C20,11.7826017 19.836,11.9516949 19.6333333,11.9516949 L0.366666667,11.9516949 C0.164,11.9516949 0,11.7826017 0,11.5741525 C0,11.3654746 0.164,11.1966102 0.366666667,11.1966102 L19.6333333,11.1966102 Z M19.6333333,16.3446864 C19.836,16.3446864 20,16.5135508 20,16.7222288 C20,16.9309068 19.836,17.1 19.6333333,17.1 L5.36666667,17.1 C5.164,17.1 5,16.9309068 5,16.7222288 C5,16.5135508 5.164,16.3446864 5.36666667,16.3446864 L19.6333333,16.3446864 Z" id="Shape"></path>
</svg>
