<?xml version="1.0" encoding="UTF-8"?>
<svg viewBox="0 0 20 20" version="1.1" xmlns="http://www.w3.org/2000/svg" xmlns:xlink="http://www.w3.org/1999/xlink">
    <!-- Generator: Sketch 55.1 (78136) - https://sketchapp.com -->
    <title>Message Log</title>
    <desc>Created with Sketch.</desc>
    <path d="M19.93361,0.735426009 L6.80912863,0.735426009 C6.78423237,0.735426009 6.7593361,0.757847534 6.7593361,0.789237668 L6.7593361,2.05381166 C6.7593361,2.08071749 6.78008299,2.10762332 6.80912863,2.10762332 L19.93361,2.10762332 C19.9585062,2.10762332 19.9834025,2.08520179 19.9834025,2.05381166 L19.9834025,0.789237668 C19.9834025,0.757847534 19.9626556,0.735426009 19.93361,0.735426009 Z" id="Path"></path>
    <path d="M6.80912863,4.39461883 L13.3443983,4.39461883 C13.3692946,4.39461883 13.3941909,4.37219731 13.3941909,4.34080717 L13.3941909,3.07623318 C13.3941909,3.04932735 13.373444,3.02242152 13.3443983,3.02242152 L6.80912863,3.02242152 C6.78423237,3.02242152 6.7593361,3.04484305 6.7593361,3.07623318 L6.7593361,4.34080717 C6.7593361,4.37219731 6.78008299,4.39461883 6.80912863,4.39461883 Z" id="Path"></path>
    <path d="M19.93361,8.16143498 L6.80912863,8.16143498 C6.78423237,8.16143498 6.7593361,8.1838565 6.7593361,8.21524664 L6.7593361,9.47982063 C6.7593361,9.50672646 6.78008299,9.53363229 6.80912863,9.53363229 L19.93361,9.53363229 C19.9585062,9.53363229 19.9834025,9.51121076 19.9834025,9.47982063 L19.9834025,8.21524664 C19.9834025,8.1838565 19.9626556,8.16143498 19.93361,8.16143498 Z" id="Path"></path>
    <path d="M6.80912863,11.8206278 L13.3443983,11.8206278 C13.3692946,11.8206278 13.3941909,11.7982063 13.3941909,11.7668161 L13.3941909,10.5022422 C13.3941909,10.4753363 13.373444,10.4484305 13.3443983,10.4484305 L6.80912863,10.4484305 C6.78423237,10.4484305 6.7593361,10.470852 6.7593361,10.5022422 L6.7593361,11.7668161 C6.7593361,11.7982063 6.78008299,11.8206278 6.80912863,11.8206278 Z" id="Path"></path>
    <path d="M19.93361,15.5874439 L6.80912863,15.5874439 C6.78423237,15.5874439 6.7593361,15.6098655 6.7593361,15.6412556 L6.7593361,16.9058296 C6.7593361,16.9327354 6.78008299,16.9596413 6.80912863,16.9596413 L19.93361,16.9596413 C19.9585062,16.9596413 19.9834025,16.9372197 19.9834025,16.9058296 L19.9834025,15.6412556 C19.9834025,15.6098655 19.9626556,15.5874439 19.93361,15.5874439 Z" id="Path"></path>
    <path d="M13.3443983,17.8789238 L6.80912863,17.8789238 C6.78423237,17.8789238 6.7593361,17.9013453 6.7593361,17.9327354 L6.7593361,19.1973094 C6.7593361,19.2242152 6.78008299,19.2511211 6.80912863,19.2511211 L13.3443983,19.2511211 C13.3692946,19.2511211 13.3941909,19.2286996 13.3941909,19.1973094 L13.3941909,17.9327354 C13.3900415,17.9013453 13.3692946,17.8789238 13.3443983,17.8789238 Z" id="Path"></path>
    <polygon id="Path" points="2.15352697 2.73542601 1.09958506 1.58744395 0 2.77130045 1.05394191 3.91479821 2.14937759 5.10313901 3.24896266 3.92376682 5.76348548 1.21524664 4.67219917 0.0269058296"></polygon>
    <polygon id="Path" points="2.15352697 10.161435 1.09958506 9.01345291 0 10.1973094 1.05394191 11.3408072 2.14937759 12.529148 3.24896266 11.3497758 5.76348548 8.64125561 4.67219917 7.4529148"></polygon>
    <polygon id="Path" points="2.15352697 17.5874439 1.09958506 16.4394619 0 17.6233184 1.05394191 18.7668161 2.14937759 19.955157 3.24896266 18.7713004 5.76348548 16.0672646 4.67219917 14.8789238"></polygon>
</svg>
