<?xml version="1.0" encoding="UTF-8"?>
<svg viewBox="0 0 19 19" version="1.1" xmlns="http://www.w3.org/2000/svg" xmlns:xlink="http://www.w3.org/1999/xlink">
    <!-- Generator: Sketch 55.1 (78136) - https://sketchapp.com -->
    <title>Notifications</title>
    <desc>Created with Sketch.</desc>
    <path d="M15.4567111,0 C13.2128111,0 11.4040111,1.57444225 9.65474444,3.09720163 C8.07141111,4.47533768 6.5759,5.77694759 4.91825556,5.77694759 L2.16874444,5.77694759 C0.9728,5.77694759 0,6.7988489 0,8.05565219 L0,9.98144927 C0,11.2380308 0.9728,12.2599321 2.16874444,12.2599321 L2.29076667,12.2599321 L2.29076667,16.7212954 C2.29076667,17.9778769 3.26377778,19 4.45972222,19 L5.37615556,19 C6.5721,19 7.5449,17.9778769 7.5449,16.7212954 L7.5449,13.2372486 C8.24515556,13.7148161 8.94076667,14.3192617 9.65411111,14.9403435 C11.4035889,16.4626592 13.2123889,18.0375451 15.4562889,18.0375451 C17.4434778,18.0373233 19,14.0759307 19,9.01877255 C19,3.96139253 17.4434778,0 15.4567111,0 Z M6.87314444,16.7215172 C6.87314444,17.5885917 6.2016,18.2939631 5.37636667,18.2939631 L4.45993333,18.2939631 C3.63448889,18.2939631 2.96294444,17.5885917 2.96294444,16.7215172 L2.96294444,12.2599321 L4.91825556,12.2599321 C5.59106667,12.2599321 6.23706667,12.4770889 6.87314444,12.8237856 L6.87314444,16.7215172 Z M10.0833,14.3964533 C8.47801111,12.9987975 6.81804444,11.5538952 4.91825556,11.5538952 L2.16874444,11.5538952 C1.34351111,11.5538952 0.671966667,10.8485238 0.671966667,9.98144927 L0.671966667,8.05565219 C0.671966667,7.1885777 1.34351111,6.48298446 2.16874444,6.48298446 L4.91804444,6.48298446 C6.81783333,6.48298446 8.47758889,5.0378603 10.0830889,3.64086998 C11.2564444,2.61963412 12.4583,1.57643859 13.7703556,1.05251176 C12.6559,2.55552961 11.913,5.52518767 11.913,9.01877255 C11.913,12.511692 12.6556889,15.4815719 13.7699333,16.9841461 C12.4583,16.4606629 11.2564444,15.4174673 10.0833,14.3964533 Z M15.4567111,17.3312864 C14.0699222,17.3312864 12.5851778,13.9911975 12.5851778,9.01877255 C12.5851778,4.04612583 14.0697111,0.705815053 15.4567111,0.705815053 C16.8432889,0.705815053 18.3280333,4.04612583 18.3280333,9.01877255 C18.3278222,13.9911975 16.8432889,17.3312864 15.4567111,17.3312864 Z" id="Shape"></path>
</svg>
