<?xml version="1.0" encoding="UTF-8"?>
<svg viewBox="0 0 20 20" version="1.1" xmlns="http://www.w3.org/2000/svg" xmlns:xlink="http://www.w3.org/1999/xlink">
    <!-- Generator: Sketch 55.1 (78136) - https://sketchapp.com -->
    <title>Registries</title>
    <desc>Created with Sketch.</desc>
    <path d="M18.3870968,4.51612903 L18.0645161,4.51612903 L18.0645161,0 L1.93548387,0 L1.93548387,4.51612903 L1.61290323,4.51612903 C0.72360129,4.51612903 0,5.23973032 0,6.12903226 L0,16.4516129 C0,17.3409148 0.72360129,18.0645161 1.61290323,18.0645161 L5.80645161,18.0645161 L5.80645161,19.3548387 L4.51612903,19.3548387 L4.51612903,20 L15.483871,20 L15.483871,19.3548387 L14.1935484,19.3548387 L14.1935484,18.0645161 L18.3870968,18.0645161 C19.2763987,18.0645161 20,17.3409148 20,16.4516129 L20,6.12903226 C20,5.23973032 19.2763987,4.51612903 18.3870968,4.51612903 Z M2.58064516,3.22580645 L17.4193548,3.22580645 L17.4193548,13.5483871 L2.58064516,13.5483871 L2.58064516,3.22580645 Z M17.4193548,0.64516129 L17.4193548,2.58064516 L2.58064516,2.58064516 L2.58064516,0.64516129 L17.4193548,0.64516129 Z M1.61290323,5.16129032 L1.93548387,5.16129032 L1.93548387,14.1935484 L18.0645161,14.1935484 L18.0645161,5.16129032 L18.3870968,5.16129032 C18.9205834,5.16129032 19.3548387,5.5955456 19.3548387,6.12903226 L19.3548387,14.8387097 L0.64516129,14.8387097 L0.64516129,6.12903226 C0.64516129,5.5955456 1.07941657,5.16129032 1.61290323,5.16129032 Z M13.5483871,19.3548387 L6.4516129,19.3548387 L6.4516129,18.0645161 L13.5483871,18.0645161 L13.5483871,19.3548387 Z M18.3870968,17.4193548 L1.61290323,17.4193548 C1.07941657,17.4193548 0.64516129,16.9850996 0.64516129,16.4516129 L0.64516129,15.483871 L19.3548387,15.483871 L19.3548387,16.4516129 C19.3548387,16.9850996 18.9205834,17.4193548 18.3870968,17.4193548 Z" id="Shape" fill-rule="nonzero"></path>
    <path d="M8.50774952,8.2125756 L7.41935484,7.90196573 L7.41935484,7.81612274 C7.82132056,7.51323085 8.06451613,7.03676286 8.06451613,6.53257306 L8.06451613,5.95451109 C8.06451613,5.0874181 7.41903984,4.35263355 6.59478956,4.28096649 C6.14320815,4.24190399 5.6938319,4.39390121 5.36195815,4.69836819 C5.02929685,5.00283516 4.83870968,5.43646044 4.83870968,5.88709677 L4.83870968,6.53225806 C4.83870968,7.03644782 5.08190524,7.51323085 5.48387097,7.8158077 L5.48387097,7.90165073 L4.39547629,8.2125756 C3.70684226,8.40962073 3.22580645,9.04737903 3.22580645,9.76357738 L3.22580645,10.7258065 L9.67741935,10.7258065 L9.67741935,9.76357738 C9.67741935,9.04737903 9.19638355,8.40962073 8.50774952,8.2125756 Z M9.03225806,10.0806452 L3.87096774,10.0806452 L3.87096774,9.76357738 C3.87096774,9.33357484 4.15968371,8.95098286 4.57283266,8.83285032 L6.12903226,8.38835685 L6.12903226,7.45810234 L5.96868702,7.36485637 C5.66516508,7.18813004 5.48387097,6.87673262 5.48387097,6.53225806 L5.48387097,5.88709677 C5.48387097,5.61680948 5.59838081,5.35644532 5.79810359,5.17357613 C6.00003149,4.98802923 6.26260081,4.89840601 6.53934601,4.92329258 C7.03251008,4.96613532 7.41935484,5.41866177 7.41935484,5.95419605 L7.41935484,6.53225806 C7.41935484,6.87673262 7.23806073,7.18813004 6.93453879,7.36485637 L6.77419355,7.45810234 L6.77419355,8.38835685 L8.33039315,8.83285032 C8.7435421,8.9512979 9.03225806,9.33388988 9.03225806,9.76357738 L9.03225806,10.0806452 Z" id="Shape" fill-rule="nonzero"></path>
    <polygon id="Path" transform="translate(9.322581, 5.516129)" points="0.677419355 0.483870968 6.67741935 0.483870968 6.67741935 1.48387097 0.677419355 1.48387097"></polygon>
    <polygon id="Path" transform="translate(9.322581, 5.516129)" points="0.677419355 2.48387097 4.67741935 2.48387097 4.67741935 3.48387097 0.677419355 3.48387097"></polygon>
</svg>
