<?xml version="1.0" encoding="UTF-8"?>
<svg viewBox="0 0 18 18" version="1.1" xmlns="http://www.w3.org/2000/svg" xmlns:xlink="http://www.w3.org/1999/xlink">
    <!-- Generator: Sketch 55.1 (78136) - https://sketchapp.com -->
    <title>Search</title>
    <desc>Created with Sketch.</desc>
    <path d="M7.60878848,15.217577 C3.40657064,15.217577 0,11.8110063 0,7.60878848 C0,3.40657064 3.40657064,0 7.60878848,0 C11.8110063,0 15.217577,3.40657064 15.217577,7.60878848 C15.217577,11.8110063 11.8110063,15.217577 7.60878848,15.217577 Z M7.60878848,14.2030718 C11.2507106,14.2030718 14.2030718,11.2507106 14.2030718,7.60878848 C14.2030718,3.96686635 11.2507106,1.01450513 7.60878848,1.01450513 C3.96686635,1.01450513 1.01450513,3.96686635 1.01450513,7.60878848 C1.01450513,11.2507106 3.96686635,14.2030718 7.60878848,14.2030718 Z M13.5472484,13.5472484 C13.7453429,13.349154 14.0665174,13.349154 14.2646119,13.5472484 L17.8514292,17.1340657 C18.0495236,17.3321602 18.0495236,17.6533347 17.8514292,17.8514292 C17.6533347,18.0495236 17.3321602,18.0495236 17.1340657,17.8514292 L13.5472484,14.2646119 C13.349154,14.0665174 13.349154,13.7453429 13.5472484,13.5472484 Z" id="path-1"></path>
</svg>
