<?xml version="1.0" encoding="UTF-8"?>
<svg viewBox="0 0 17 18" version="1.1" xmlns="http://www.w3.org/2000/svg" xmlns:xlink="http://www.w3.org/1999/xlink">
    <!-- Generator: Sketch 55.1 (78136) - https://sketchapp.com -->
    <title>Setting</title>
    <desc>Created with Sketch.</desc>
    <path transform="translate(-0.871627,0)" d="M9.44994758,5.4986611 C11.4037129,5.4986611 12.9937281,7.06967855 12.9937281,9.00050001 C12.9937281,10.9313215 11.4037129,12.5021389 9.44994758,12.5021389 C7.49618225,12.5021389 5.90616706,10.9313215 5.90616706,9.00050001 C5.90616706,7.06967855 7.49618225,5.4986611 9.44994758,5.4986611 Z M9.44994758,11.8653318 C11.0484644,11.8653318 12.3490179,10.5799176 12.3490179,9.00050001 C12.3490179,7.42088245 11.0484644,6.13566817 9.44994758,6.13566817 C7.85143071,6.13566817 6.55087723,7.42088245 6.55087723,9.00050001 C6.55087723,10.5799176 7.85143071,11.8653318 9.44994758,11.8653318 Z M16.2901504,7.69348548 C16.145622,7.7758864 16.0336833,8.00788898 16.0602004,8.17069079 C16.0626295,8.18509095 16.1180928,8.52969477 16.1180928,9.0003 C16.1180928,9.47030523 16.0630343,9.81510906 16.0604029,9.82950922 C16.0338857,9.99251103 16.1458244,10.2243136 16.2903529,10.3067145 L17.3510377,10.9119212 C17.6504181,11.0825231 17.8651865,11.3595262 17.9550613,11.6915299 C18.0447337,12.0229336 17.9991891,12.3685374 17.8263217,12.6643407 L16.8500463,14.3351593 C16.6773814,14.6307626 16.397231,14.8431649 16.061415,14.9319659 C15.7260037,15.0205669 15.3758158,14.9755664 15.0764355,14.8045645 L14.015953,14.1997578 C13.871627,14.1173569 13.6119212,14.1375571 13.4823719,14.2415582 C13.4708339,14.2511583 13.1900763,14.4753608 12.7846274,14.7067634 C12.3840367,14.935766 12.0427553,15.0657674 12.0285858,15.0709675 C11.8725194,15.1301681 11.7249547,15.3423705 11.7249547,15.5073723 L11.7249547,16.7169857 C11.7249547,17.4241936 11.1423877,18 10.4264254,18 L8.4738746,18 C7.75791231,18 7.17534532,17.4241936 7.17534532,16.7169857 L7.17534532,15.5073723 C7.17534532,15.3421705 7.02778058,15.1301681 6.87171416,15.0709675 C6.8575447,15.0657674 6.51666812,14.935966 6.11587498,14.7067634 C5.71062859,14.4753608 5.43007339,14.2511583 5.41813057,14.2415582 C5.28878369,14.1375571 5.02948268,14.1169569 4.88495424,14.1997578 L3.82386453,14.8049645 C3.20344486,15.1581684 2.40813363,14.9477661 2.04984885,14.3353593 L1.07357345,12.6645407 C0.900706108,12.3689374 0.855161433,12.0227336 0.945036258,11.6913299 C1.03491108,11.3593262 1.24927468,11.0825231 1.54865501,10.9117212 L2.60994714,10.3065145 C2.75427315,10.2241136 2.86621184,9.99191102 2.83969472,9.82930921 C2.83726567,9.81490905 2.7820048,9.47030523 2.7820048,9.0001 C2.7820048,8.52989478 2.83726567,8.18489094 2.83969472,8.17049078 C2.86641426,8.00768897 2.75447557,7.7756864 2.60994714,7.69328548 L1.54865501,7.08787875 C1.2494771,6.91707686 1.03491108,6.64047378 0.945036258,6.30847009 C0.855161433,5.97706641 0.900706108,5.63126257 1.07357345,5.33545928 L2.04984885,3.66464072 C2.2227162,3.36903743 2.50286655,3.15683508 2.8384802,3.06803409 C3.17449868,2.9794331 3.52407936,3.0242336 3.82345969,3.1950355 L4.88515666,3.80064223 C5.03008994,3.88324315 5.28918853,3.86284292 5.41873783,3.75864176 C5.43027581,3.74924166 5.71062859,3.52523917 6.11587498,3.2940366 C6.5164657,3.06523406 6.85734228,2.93523261 6.87151174,2.92983255 C7.02757816,2.8706319 7.1751429,2.65842954 7.1751429,2.4934277 L7.1751429,1.28301426 C7.1751429,0.575406393 7.75770989,0 8.47367218,0 L10.426223,0 C11.1421853,0 11.7247523,0.575406393 11.7249547,1.28321426 L11.7249547,2.4932277 C11.7249547,2.65882954 11.8725194,2.8706319 12.0285858,2.92983255 C12.0427553,2.93523261 12.3836319,3.06483405 12.7842226,3.2940366 C13.189469,3.52523917 13.4698218,3.74924166 13.4817646,3.75884176 C13.6115163,3.86304292 13.8708173,3.88324315 14.0151433,3.80064223 L15.0764355,3.1954355 C15.3758158,3.0244336 15.7262062,2.97963311 16.061415,3.06823409 C16.397231,3.15703508 16.677179,3.36923744 16.8500463,3.66504072 L17.8263217,5.33585929 C17.9993915,5.63146257 18.0447337,5.97726641 17.9550613,6.3090701 C17.8651865,6.64067379 17.6506205,6.91727686 17.3512402,7.08827876 L16.2901504,7.69348548 Z M15.4243968,8.2712919 C15.3557761,7.85108723 15.5946327,7.35488172 15.9678966,7.14207936 L17.0281766,6.53667263 C17.1785752,6.45107168 17.2862631,6.31147013 17.3318078,6.14386827 C17.3773524,5.97666641 17.3544789,5.80246447 17.2676404,5.65366282 L16.291365,3.98284425 C16.2045265,3.8344426 16.0636416,3.72804142 15.894013,3.68324092 C15.7237771,3.63804042 15.5480759,3.66064067 15.3978797,3.74664163 L14.3365875,4.35164835 C13.9639309,4.56465072 13.4088931,4.52105023 13.0748988,4.25264725 C13.0724698,4.25044723 12.8196462,4.04944499 12.4613615,3.84484272 C12.1069227,3.64264047 11.8000528,3.52503917 11.7968141,3.52383915 C11.3950088,3.37163746 11.0798397,2.91883243 11.0798397,2.4930277 L11.0798397,1.28301426 C11.0798397,0.926610296 10.786532,0.636607073 10.4258181,0.636607073 L8.47326734,0.636607073 C8.11255351,0.636607073 7.81924581,0.926610296 7.81924581,1.28301426 L7.81924581,2.4934277 C7.81924581,2.91923244 7.50407666,3.37163746 7.102069,3.52403916 C7.09943753,3.52483916 6.79236521,3.64264047 6.43812886,3.84504272 C6.07964166,4.049845 5.82702053,4.25064723 5.82438906,4.25284725 C5.49019236,4.52125024 4.9361667,4.56465072 4.56270037,4.35164835 L3.5010034,3.74604162 C3.35080718,3.66084068 3.17449868,3.63804042 3.00527492,3.68304092 C2.83544388,3.72784142 2.69455902,3.8344426 2.60772051,3.98284425 L1.63144511,5.65366282 C1.54480902,5.80246447 1.52173305,5.97646641 1.56727772,6.14386827 C1.61261998,6.31147013 1.72051025,6.45107168 1.87070647,6.53667263 C2.09944194,6.66707408 2.21380968,6.7322748 2.21380968,6.7322748 C2.21380968,6.7322748 2.27696496,6.7682752 2.93199859,7.14207936 C3.30546493,7.35488172 3.54432144,7.85108723 3.4757008,8.27169191 C3.47529596,8.27429194 3.42651255,8.58389538 3.42651255,9.0003 C3.42651255,9.41650463 3.47529596,9.72590807 3.4757008,9.7289081 C3.5439166,10.1489128 3.30526251,10.6453183 2.93199859,10.8581206 L2.21542905,11.2661252 C2.16583596,11.2961255 2.07069819,11.3501261 1.87171857,11.4633274 C1.72152235,11.5493283 1.61363208,11.6887299 1.56828983,11.8565317 C1.52274515,12.0237336 1.5456187,12.1979355 1.63245721,12.3467372 L2.60873262,14.0175558 C2.78888711,14.3257592 3.18947782,14.4321604 3.50242034,14.2537584 C3.68055062,14.1523572 3.78317796,14.0941566 3.84673808,14.0573562 L4.56330763,13.6489517 C4.93555944,13.4355493 5.49039478,13.4793498 5.82499633,13.7475528 C5.82722295,13.7499528 6.08024892,13.951355 6.4385337,14.1557573 C6.79600879,14.3599596 7.09984237,14.4755608 7.1030811,14.4767609 C7.50529119,14.6291625 7.82025791,15.0821676 7.82025791,15.5075723 L7.82025791,16.7171857 C7.82025791,17.0735897 8.11356562,17.3633929 8.47427944,17.3633929 L10.4268302,17.3633929 C10.7875441,17.3633929 11.0808518,17.0735897 11.0808518,16.7171857 L11.0808518,15.5075723 C11.0808518,15.0821676 11.3960209,14.6293625 11.7980286,14.4769609 C11.8008625,14.4761608 12.1081372,14.3581595 12.4627784,14.1557573 C12.8210632,13.951355 13.0740892,13.7499528 13.0765182,13.7475528 C13.4109173,13.4793498 13.9655503,13.4357493 14.3384093,13.6489517 L15.3986893,14.2535584 C15.5492904,14.3393593 15.7255989,14.3621596 15.8948227,14.3171591 C16.0644513,14.2719586 16.2053361,14.1657574 16.2923771,14.0169557 L17.2686525,12.3461372 C17.3552886,12.1977355 17.3783645,12.0235336 17.3328199,11.8563317 C17.2872752,11.6885299 17.1795873,11.5491283 17.0291887,11.4631274 L15.9683014,10.8581206 C15.5950375,10.6453183 15.3559786,10.1491128 15.4243968,9.72850809 C15.4248016,9.72590807 15.473585,9.41670463 15.473585,9.0003 C15.473585,8.58389538 15.4245992,8.27449194 15.4243968,8.2712919 Z" id="Shape"></path>
</svg>
