<?xml version="1.0" encoding="UTF-8"?>
<svg viewBox="0 0 20 20" version="1.1" xmlns="http://www.w3.org/2000/svg" xmlns:xlink="http://www.w3.org/1999/xlink">
    <!-- Generator: Sketch 55.1 (78136) - https://sketchapp.com -->
    <title>Campaign</title>
    <desc>Created with Sketch.</desc>
    <circle transform="translate(0, 0.019310)" id="Oval" cx="0.394509804" cy="19.5668081" r="1"></circle>
    <path transform="translate(0, 0.019310)" d="M4.918,16.0767688 C4.72333333,15.9798277 4.48701961,16.0590826 4.39007843,16.25371 L3.92113725,17.1954747 C3.71721569,17.6049257 3.30709804,17.8787296 2.85070588,17.9099453 L2.30529412,17.9472787 C2.21309804,17.9534355 2.15247059,17.9075139 2.12443137,17.8794747 C2.09639216,17.8514355 2.05035294,17.7906904 2.05662745,17.6985728 L2.09396078,17.1532002 C2.12521569,16.6968473 2.39901961,16.2866904 2.80843137,16.0827688 L3.75015686,15.6138277 C3.94482353,15.5168865 4.02403922,15.2805336 3.92709804,15.0859061 C3.83019608,14.8912787 3.59384314,14.8120237 3.39917647,14.9089649 L2.45745098,15.3779061 C1.79894118,15.7058277 1.35862745,16.3654355 1.30835294,17.0993963 L1.27101961,17.6447688 C1.25086275,17.939161 1.35894118,18.2276316 1.56756863,18.436259 C1.75964706,18.6283375 2.01945098,18.7352394 2.2892549,18.7352394 C2.31243137,18.7352394 2.33576471,18.7344551 2.35905882,18.7328473 L2.90447059,18.6955139 C3.63843137,18.6452787 4.29803922,18.2050041 4.62596078,17.5464159 L5.09490196,16.6046904 C5.19184314,16.4100237 5.11262745,16.17371 4.918,16.0767688 Z" id="Path"></path>
    <path transform="translate(0, 0.019310)" d="M19.7300982,0.262776038 C19.914051,0.445174111 20.0123362,0.69853533 19.9996013,0.958026255 L19.990265,1.15001182 C19.8216644,4.61400348 18.1627301,7.82007595 15.4388308,9.94621979 L14.5299268,10.6556548 L14.5299268,12.8165729 C14.5299268,14.6110446 13.8352502,16.29805 12.5737539,17.5669386 L10.2697934,19.8844 C10.1948685,19.9598033 10.0945519,20 9.99239937,20 C9.94513183,20 9.89755178,19.9913555 9.85176868,19.9736737 C9.70715345,19.9177205 9.60882915,19.7813738 9.60086008,19.6256949 L9.34920927,14.6995324 L9.08189376,14.9081782 C9.01165654,14.9630312 8.92680936,14.9910079 8.84141528,14.9910079 C8.77723299,14.9910079 8.71281632,14.9751728 8.65406395,14.9430311 C8.53792643,14.8794943 8.42350774,14.8131678 8.31049535,14.7447587 C8.12115175,14.9015377 7.91856542,15.0715585 7.7205496,15.2377678 C7.44272585,15.4709325 7.15548766,15.7120736 6.90633695,15.9153755 C6.83508407,15.9734898 6.7475024,16.0035097 6.65917851,16.0035097 C6.60222308,16.0035097 6.54491607,15.9910538 6.49147641,15.965592 C5.9446574,15.7052759 5.45506727,15.3580044 5.03637845,14.9333257 C4.6276119,14.5187847 4.29232489,14.0363453 4.03969748,13.4994066 C3.97410889,13.3598378 3.99539881,13.1945715 4.09427,13.0764961 L5.25080119,11.6954652 C5.16728218,11.558647 5.08720082,11.4195891 5.01079147,11.2782915 C4.93481184,11.1378584 4.95067185,10.965205 5.05087122,10.8410784 L5.2497074,10.5948292 L0.37279124,10.342804 C0.21801935,10.3348668 0.0824669883,10.235927 0.0268397367,10.0904251 C-0.028787515,9.94496241 0.00601858137,9.78012831 0.115593329,9.66991146 L2.41951471,7.35245004 C3.68101109,6.08360071 5.35822741,5.38481413 7.14220587,5.38481413 C7.14599509,5.38481413 7.14986243,5.38485342 7.15369071,5.3849713 L9.4031177,5.45141575 L10.2626837,4.38700786 C12.331244,1.82534049 15.3955478,0.235585287 18.66986,0.0253284825 L19.035031,0.00190985875 C19.2925414,-0.0149468352 19.5460673,0.0804172585 19.7300982,0.262776038 Z M1.29392228,9.60044145 L5.86207593,9.83651375 L8.78055344,6.22234427 L7.13654158,6.17377813 C5.56421231,6.17531056 4.08610561,6.7918962 2.97414654,7.91037124 L1.29392228,9.60044145 Z M7.21802926,14.6319878 C7.3543629,14.5175666 7.4929232,14.4012593 7.62816304,14.2883313 C7.24513973,14.0063255 6.88407043,13.6944963 6.54839278,13.3546905 C6.54827558,13.3545726 6.54815839,13.354494 6.5480412,13.3543761 C6.54796307,13.3542975 6.54788494,13.3541796 6.54780681,13.3541011 C6.54757243,13.3538653 6.54733805,13.3536688 6.54710366,13.3534331 C6.24435703,13.0468299 5.96411131,12.7195585 5.70808532,12.3740552 L4.8613323,13.3851818 C5.05930906,13.7520998 5.30482681,14.0851865 5.59327599,14.3777228 C5.89110054,14.6798073 6.23189559,14.9358798 6.60862959,15.1411071 C6.8034031,14.9799665 7.01329441,14.8037767 7.21802926,14.6319878 Z M13.7456763,12.8165729 L13.7456372,12.8165729 L13.7456372,11.2679575 L10.1045133,14.1100197 L10.3389759,18.6991269 L12.0192002,17.0090567 C13.1325655,15.8891671 13.7456763,14.400277 13.7456763,12.8165729 Z M10.4707843,9.95512179 C10.6882329,9.95512179 10.8645098,9.77884488 10.8645098,9.5613963 C10.8645098,9.34394771 10.6882329,9.16767081 10.4707843,9.16767081 C10.2533357,9.16767081 10.0770588,9.34394771 10.0770588,9.5613963 C10.0770588,9.77884488 10.2533357,9.95512179 10.4707843,9.95512179 Z M15.6266275,4.57018061 C15.3101176,4.25363159 14.8892941,4.07935708 14.4416863,4.07935708 C13.9940784,4.07935708 13.5732157,4.25371002 13.2567451,4.57018061 C12.6033725,5.22359238 12.6033725,6.28672963 13.2567451,6.94010218 C13.5834902,7.26680806 14.0125098,7.43010218 14.4416863,7.43010218 C14.8707451,7.43010218 15.2999608,7.26672963 15.6266275,6.94010218 C16.28,6.28669041 16.28,5.22355316 15.6266275,4.57018061 Z" id="Combined-Shape" fill-rule="nonzero"></path>
</svg>
