<?xml version="1.0" encoding="UTF-8"?>
<svg viewBox="0 0 20 20" version="1.1" xmlns="http://www.w3.org/2000/svg" xmlns:xlink="http://www.w3.org/1999/xlink">
    <!-- Generator: Sketch 55.1 (78136) - https://sketchapp.com -->
    <title>Dashboard</title>
    <desc>Created with Sketch.</desc>
    <path transform="translate(-267.000000, -218.000000)" d="M279.111333,238 L279.111333,233.13223 C279.111333,231.683747 278.504337,230.505887 277,230.505887 C275.495663,230.505887 274.888667,231.683747 274.888667,233.13223 L274.888667,238 L272.176889,238 C270.8,238 269.679556,236.794688 269.679556,235.313508 L269.679556,228.949882 C269.679556,228.77848 269.549778,228.638873 269.390222,228.638873 L267.996889,228.638873 C267.447111,228.638873 267,228.157895 267,227.566475 L267,226.644204 C267,226.143863 267.277111,225.534513 267.644222,225.227329 L275.767556,218.430776 C276.099556,218.153234 276.536889,218 277,218 C277.462667,218 277.900667,218.153234 278.232444,218.430776 L286.355778,225.227329 C286.722889,225.534513 287,226.143863 287,226.644204 L287,227.566475 C287,228.157656 286.552889,228.638873 286.003111,228.638873 L284.609778,228.638873 C284.450222,228.638873 284.320444,228.77848 284.320444,228.949882 L284.320444,235.313508 C284.320444,236.794688 283.2,238 281.822889,238 L279.111333,238 Z" id="Combined-Shape"></path>
</svg>
