<?xml version="1.0" encoding="UTF-8"?>
<svg viewBox="0 0 20 20" version="1.1" xmlns="http://www.w3.org/2000/svg" xmlns:xlink="http://www.w3.org/1999/xlink">
    <!-- Generator: Sketch 55.1 (78136) - https://sketchapp.com -->
    <title>Enterprise</title>
    <desc>Created with Sketch.</desc>
    <path d="M19.6670417,4.99999992 C19.8510417,5.000125 19.9999999,5.14933333 19.9999999,5.33333333 L19.9999999,17.3337083 C19.9999999,17.5177083 19.8506667,17.6667917 19.6666667,17.6666667 L18.969875,17.6666667 C18.98925,17.77675 18.9993333,17.88825 18.9999999,17.9999999 L18.9999999,19.6670417 C18.999875,19.8510417 18.8506667,19.9999999 18.6666667,19.9999999 L1.33295833,19.9999999 C1.14895833,19.9999999 0.999875,19.8506667 0.999999921,19.6666667 L0.999999921,17.9999999 C1.00070833,17.88825 1.01079167,17.77675 1.030125,17.6666667 L0.332958333,17.6666667 C0.148958333,17.6665417 -7.85479166e-08,17.5173333 -7.85479166e-08,17.3333333 L-7.85479166e-08,5.33295833 C-7.85479166e-08,5.14895833 0.149333333,4.999875 0.333333333,4.99999992 L5.33333333,4.99999992 L5.33333333,0.332958333 C5.33345833,0.148958333 5.48266667,-7.85479166e-08 5.66666667,-7.85479166e-08 L14.3337083,-7.85479166e-08 C14.5177083,-7.85479166e-08 14.6667917,0.149333333 14.6666667,0.333333333 L14.6666667,4.99999992 L19.6670417,4.99999992 Z M14.3333333,14.3333333 C14.332875,13.9653333 14.0346667,13.667125 13.6666667,13.6666667 C13.2984583,13.6666667 13,13.965125 13,14.3333333 C13,14.7015417 13.2984583,15 13.6666667,15 C14.034875,15 14.3333333,14.7015417 14.3333333,14.3333333 Z M6.33333333,13.6666667 C5.96533333,13.667125 5.667125,13.9653333 5.66666667,14.3333333 C5.66666667,14.7015417 5.965125,15 6.33333333,15 C6.70154167,15 7,14.7015417 7,14.3333333 C7,13.965125 6.70154167,13.6666667 6.33333333,13.6666667 Z M4.38383333,16.559375 C4.51054167,16.0022083 4.86883333,15.5255417 5.36883333,15.249 C4.89104167,14.7539583 4.87558333,13.9742917 5.33333333,13.4606667 L5.33333333,5.66666667 L0.666666667,5.66666667 L0.666666667,16.9999583 L1.27058333,16.9999583 C1.453,16.6850833 1.71733333,16.4255417 2.0355,16.2489583 C1.54370833,15.73375 1.54370833,14.9229583 2.0355,14.40775 C2.54395833,13.8750833 3.38795833,13.8554167 3.920625,14.363875 C4.45329167,14.8723333 4.47291667,15.7163333 3.9645,16.249 C4.11716667,16.3337917 4.258125,16.438125 4.38383333,16.559375 Z M7.66666667,19.3333333 L7.66666667,17 C7.66666667,16.263625 7.06970833,15.6666667 6.33333333,15.6666667 C5.59695833,15.6666667 5,16.263625 5,17 L5,19.3333333 L7.66666667,19.3333333 Z M11.6666667,19.3333333 L11.6666667,17 C11.6666667,16.0795417 10.9204583,15.3333333 10,15.3333333 C9.07954167,15.3333333 8.33333333,16.0795417 8.33333333,17 L8.33333333,19.3333333 L11.6666667,19.3333333 Z M9,13.6666667 C9.00058333,14.2187083 9.44795833,14.6660833 10,14.6666667 C10.5522917,14.6666667 11,14.2189583 11,13.6666667 C11,13.114375 10.5522917,12.6666667 10,12.6666667 C9.44770833,12.6666667 9,13.114375 9,13.6666667 Z M15,18 L15,17 C15,16.263625 14.4030417,15.6666667 13.6666667,15.6666667 C12.9302917,15.6666667 12.3333333,16.263625 12.3333333,17 L12.3333333,19.3333333 L15,19.3333333 L15,18 Z M19.333375,17 L19.333375,5.66666667 L14.6667083,5.66666667 L14.6667083,13.460625 C15.1244583,13.97425 15.1089583,14.7539167 14.6311667,15.2489583 C15.1311667,15.5255 15.4895,16.0021667 15.6161667,16.5593333 C15.7418333,16.4380833 15.8828333,16.33375 16.0355,16.2489583 C15.5437083,15.73375 15.5437083,14.9229583 16.0355,14.40775 C16.5439583,13.8750833 17.3879583,13.8554583 17.920625,14.363875 C18.4532917,14.8723333 18.4729167,15.7163333 17.9645,16.249 C18.2826667,16.4255833 18.547,16.685125 18.7294167,17 L19.333375,17 Z M8.75,2.66666667 L8.75,8 L9.41666667,8 L9.41666667,2.66666667 L8.75,2.66666667 Z M10.75,2.66666667 L10.75,8 L11.4166667,8 L11.4166667,2.66666667 L10.75,2.66666667 Z" id="Combined-Shape" fill-rule="nonzero"></path>
    <rect id="Rectangle" x="16.75" y="7.66666667" width="1" height="5.33333333"></rect>
    <rect id="Rectangle" x="2.75" y="7.66666667" width="1" height="5.33333333"></rect>
</svg>
