<?xml version="1.0" encoding="UTF-8"?>
<svg viewBox="0 0 20 20" version="1.1" xmlns="http://www.w3.org/2000/svg" xmlns:xlink="http://www.w3.org/1999/xlink">
    <!-- Generator: Sketch 55.1 (78136) - https://sketchapp.com -->
    <title>Help</title>
    <desc>Created with Sketch.</desc>
    <path d="M10,0 C4.48576923,0 0,4.48576923 0,10 C0,15.5142308 4.48576923,20 10,20 C15.5142308,20 20,15.5142308 20,10 C20,4.48576923 15.5142308,0 10,0 Z M10.7692308,15.7692308 C10.7692308,16.1938462 10.4246154,16.5384615 10,16.5384615 C9.57538462,16.5384615 9.23076923,16.1938462 9.23076923,15.7692308 L9.23076923,15 C9.23076923,14.5753846 9.57538462,14.2307692 10,14.2307692 C10.4246154,14.2307692 10.7692308,14.5753846 10.7692308,15 L10.7692308,15.7692308 Z M11.8746154,9.44884615 C11.1930769,9.88884615 10.7692308,10.7126923 10.7692308,11.5992308 L10.7692308,12.6923077 C10.7692308,13.1169231 10.4246154,13.4615385 10,13.4615385 C9.57538462,13.4615385 9.23076923,13.1169231 9.23076923,12.6923077 L9.23076923,11.5992308 C9.23076923,10.1738462 9.90769231,8.88653846 11.0407692,8.15615385 C11.6023077,7.79384615 11.9319231,7.17884615 11.9226923,6.51115385 C11.9088462,5.49769231 11.0407692,4.62961538 10.0273077,4.61576923 C9.50192308,4.59 9.01884615,4.805 8.64961538,5.16884615 C8.28038462,5.53346154 8.07692308,6.01961538 8.07692308,6.53846154 C8.07692308,6.96307692 7.73230769,7.30769231 7.30769231,7.30769231 C6.88307692,7.30769231 6.53846154,6.96307692 6.53846154,6.53846154 C6.53846154,5.60461538 6.90461538,4.72961538 7.56961538,4.07384615 C8.22230769,3.43 9.08346154,3.07692308 9.99923077,3.07692308 C10.0157692,3.07692308 10.0323077,3.07730769 10.0492308,3.07730769 C11.9046154,3.10307692 13.4353846,4.63384615 13.4611538,6.48923077 C13.4780769,7.69076923 12.885,8.79730769 11.8746154,9.44884615 Z" id="Shape"></path>
</svg>
