<?xml version="1.0" encoding="UTF-8"?>
<svg viewBox="0 0 20 20" version="1.1" xmlns="http://www.w3.org/2000/svg" xmlns:xlink="http://www.w3.org/1999/xlink">
    <!-- Generator: Sketch 55.1 (78136) - https://sketchapp.com -->
    <title>Registries</title>
    <desc>Created with Sketch.</desc>
    <path d="M18.3870968,4.51612903 C19.2763987,4.51612903 20,5.23973032 20,6.12903226 L20,16.4516129 C20,17.3409148 19.2763987,18.0645161 18.3870968,18.0645161 L14.1935484,18.0645161 L14.1935484,19.3548387 L15.483871,19.3548387 L15.483871,20 L4.51612903,20 L4.51612903,19.3548387 L5.80645161,19.3548387 L5.80645161,18.0645161 L1.61290323,18.0645161 C0.72360129,18.0645161 0,17.3409148 0,16.4516129 L0,6.12903226 C0,5.23973032 0.72360129,4.51612903 1.61290323,4.51612903 L1.93548387,4.51612903 L1.93548387,0 L18.0645161,0 L18.0645161,4.51612903 L18.3870968,4.51612903 Z M17.4193548,0.64516129 L2.58064516,0.64516129 L2.58064516,2.58064516 L17.4193548,2.58064516 L17.4193548,0.64516129 Z M1.61290323,5.16129032 C1.07941657,5.16129032 0.64516129,5.5955456 0.64516129,6.12903226 L0.64516129,14.8387097 L19.3548387,14.8387097 L19.3548387,6.12903226 C19.3548387,5.5955456 18.9205834,5.16129032 18.3870968,5.16129032 L18.0645161,5.16129032 L18.0645161,14.1935484 L1.93548387,14.1935484 L1.93548387,5.16129032 L1.61290323,5.16129032 Z M13.5483871,19.3548387 L13.5483871,18.0645161 L6.4516129,18.0645161 L6.4516129,19.3548387 L13.5483871,19.3548387 Z M18.3870968,17.4193548 C18.9205834,17.4193548 19.3548387,16.9850996 19.3548387,16.4516129 L19.3548387,15.483871 L0.64516129,15.483871 L0.64516129,16.4516129 C0.64516129,16.9850996 1.07941657,17.4193548 1.61290323,17.4193548 L18.3870968,17.4193548 Z M8.50774952,8.2125756 L7.41935484,7.90196573 L7.41935484,7.81612274 C7.82132056,7.51323085 8.06451613,7.03676286 8.06451613,6.53257306 L8.06451613,5.95451109 C8.06451613,5.0874181 7.41903984,4.35263355 6.59478956,4.28096649 C6.14320815,4.24190399 5.6938319,4.39390121 5.36195815,4.69836819 C5.02929685,5.00283516 4.83870968,5.43646044 4.83870968,5.88709677 L4.83870968,6.53225806 C4.83870968,7.03644782 5.08190524,7.51323085 5.48387097,7.8158077 L5.48387097,7.90165073 L4.39547629,8.2125756 C3.70684226,8.40962073 3.22580645,9.04737903 3.22580645,9.76357738 L3.22580645,10.7258065 L9.67741935,10.7258065 L9.67741935,9.76357738 C9.67741935,9.04737903 9.19638355,8.40962073 8.50774952,8.2125756 Z M10,6 L10,7 L16,7 L16,6 L10,6 Z M10,8 L10,9 L14,9 L14,8 L10,8 Z" id="Combined-Shape" fill-rule="nonzero"></path>
</svg>
