<?xml version="1.0" encoding="UTF-8"?>
<svg viewBox="0 0 20 20" version="1.1" xmlns="http://www.w3.org/2000/svg" xmlns:xlink="http://www.w3.org/1999/xlink">
    <!-- Generator: Sketch 55.1 (78136) - https://sketchapp.com -->
    <title>message copy 2</title>
    <desc>Created with Sketch.</desc>
    <path d="M19.537092,2.4911032 L17.3768546,2.4911032 L17.3768546,0.498220641 C17.3768546,0.241992883 17.1869436,0.0142348754 16.9732938,0.0142348754 L0.403560831,0.0142348754 C0.189910979,0.0142348754 0,0.241992883 0,0.498220641 L0,13.3096085 C0,13.5658363 0.189910979,13.7935943 0.403560831,13.7935943 L2.56379822,13.7935943 L2.56379822,15.7864769 C2.56379822,16.0427046 2.7537092,16.2704626 2.96735905,16.2704626 L5.05637982,16.2704626 L5.05637982,19.4590747 C5.05637982,19.6298932 5.15133531,19.8007117 5.27002967,19.886121 C5.31750742,19.9430605 5.38872404,19.9430605 5.45994065,19.9430605 C5.53115727,19.9430605 5.62611276,19.9145907 5.69732938,19.8576512 L10.041543,16.2704626 L19.5608309,16.2704626 C19.7744807,16.2704626 19.9643917,16.0427046 19.9643917,15.7864769 L19.9643917,2.97508897 C19.9406528,2.69039146 19.7507418,2.4911032 19.537092,2.4911032 Z M2.56379822,2.97508897 L2.56379822,12.8256228 L0.807121662,12.8256228 L0.807121662,0.982206406 L16.5697329,0.982206406 L16.5697329,2.4911032 L2.96735905,2.4911032 C2.7537092,2.4911032 2.56379822,2.71886121 2.56379822,2.97508897 Z M19.1335312,15.3024911 L9.89910979,15.3024911 C9.82789318,15.3024911 9.73293769,15.3309609 9.66172107,15.3879004 L5.86350148,18.5480427 L5.86350148,15.7864769 C5.86350148,15.5302491 5.6735905,15.3024911 5.45994065,15.3024911 L3.37091988,15.3024911 L3.37091988,3.45907473 L19.1335312,3.45907473 L19.1335312,15.3024911 L19.1335312,15.3024911 Z" id="Shape" fill-rule="nonzero"></path>
    <path d="M6.24332344,6.59074733 L16.2611276,6.59074733 C16.4747774,6.59074733 16.6646884,6.36298932 16.6646884,6.10676157 C16.6646884,5.82206406 16.4747774,5.6227758 16.2611276,5.6227758 L6.24332344,5.6227758 C6.02967359,5.6227758 5.83976261,5.85053381 5.83976261,6.10676157 C5.83976261,6.36298932 6.02967359,6.59074733 6.24332344,6.59074733 Z" id="Path"></path>
    <path d="M6.24332344,9.66548043 L16.2611276,9.66548043 C16.4747774,9.66548043 16.6646884,9.43772242 16.6646884,9.18149466 C16.6646884,8.9252669 16.4747774,8.6975089 16.2611276,8.6975089 L6.24332344,8.6975089 C6.02967359,8.6975089 5.83976261,8.9252669 5.83976261,9.18149466 C5.83976261,9.43772242 6.02967359,9.66548043 6.24332344,9.66548043 Z" id="Path"></path>
    <path d="M6.24332344,12.7402135 L11.8456973,12.7402135 C12.0593472,12.7402135 12.2492582,12.5124555 12.2492582,12.2562278 C12.2492582,11.9715302 12.0830861,11.772242 11.8456973,11.772242 L6.24332344,11.772242 C6.02967359,11.772242 5.83976261,12 5.83976261,12.2562278 C5.83976261,12.5124555 6.02967359,12.7402135 6.24332344,12.7402135 Z" id="Path"></path>
</svg>
